<?xml version="1.0" encoding="UTF-8" standalone="no"?>
<!-- Created with Inkscape (http://www.inkscape.org/) -->

<svg
   width="351.84415mm"
   height="351.84418mm"
   viewBox="0 0 351.84415 351.84418"
   version="1.1"
   id="svg1"
   xml:space="preserve"
   xmlns="http://www.w3.org/2000/svg"
   xmlns:svg="http://www.w3.org/2000/svg"><defs
     id="defs1"><linearGradient
       id="swatch52"><stop
         style="stop-color:#55ffdd;stop-opacity:1;"
         offset="0"
         id="stop52" /></linearGradient></defs><g
     id="layer1"
     transform="translate(8021.6237,-3254.5709)"><circle
       style="fill:#fff9ef;fill-opacity:1;stroke:none;stroke-width:0.2;paint-order:fill markers stroke"
       id="path2"
       cx="-7845.7017"
       cy="3430.4929"
       r="175.92204" /><path
       style="fill:#f39e10;fill-opacity:1;stroke-width:2.67728;stroke-linecap:round;stroke-linejoin:round;paint-order:markers fill stroke"
       d="m -7840.9695,3364.5862 a 13.386378,13.386378 0 0 0 10.8556,15.5095 c 20.7989,3.6673 39.6352,14.5368 53.2108,30.7156 a 13.386378,13.386378 0 0 0 18.8561,1.6524 13.386378,13.386378 0 0 0 1.6524,-18.8614 c -17.6178,-20.996 -42.0785,-35.1173 -69.0708,-39.8767 a 13.386378,13.386378 0 0 0 -15.5041,10.8606 z"
       id="path9-9-2-6-3-4-7-0-2-0-7-3-0-5-3-8-5-8-0-4-1-45-9-3-0-0-3-0-5-1" /><path
       style="fill:#f39e10;fill-opacity:1;stroke-width:26.7728;stroke-linecap:round;stroke-linejoin:round;paint-order:markers fill stroke"
       d="m -7834.3571,3327.0658 a 13.386402,13.386402 0 0 0 10.8619,15.5074 c 29.6204,5.2228 56.4437,20.71 75.7769,43.7506 a 13.386402,13.386402 0 0 0 18.8595,1.6476 13.386402,13.386402 0 0 0 1.6527,-18.8595 c -23.3753,-27.8578 -55.8301,-46.5931 -91.6434,-52.908 a 13.386402,13.386402 0 0 0 -15.5076,10.8619 z"
       id="path9-9-2-6-3-4-7-0-2-8-5-5-7-8-6-2-7-7-1-7-36-4-8-8-78-9-3-2-7-1-2" /><g
       id="g2"><path
         id="path5-0-7-5-6-9-6-5-2-8-2-1-0-1-3-8-8-8-81-3-58-2-7-1-60-3-3"
         style="fill:#f39e10;fill-opacity:1;stroke-width:14.3578;stroke-linejoin:round;paint-order:markers fill stroke"
         d="m -7865.5091,3312.1357 c -1.9997,-0.083 -4.153,0.1366 -6.4249,0.6739 -0.3494,0.083 -0.702,0.174 -1.057,0.2699 -2.4848,0.6854 -5.0994,1.7437 -7.8019,3.1916 l -36.1124,19.3526 c -1.3967,0.4897 -2.6882,1.1845 -3.8325,2.0546 -3.2213,2.4497 -5.2906,6.2429 -5.2906,10.5286 v 34.988 33.2598 28.12 91.113 c 0,0.1312 0.027,0.257 0.027,0.3861 0,0.1071 0,0.2142 0.027,0.321 0,0.091 0.027,0.182 0.029,0.2712 0.5743,7.3336 6.5759,12.2011 16.8719,12.2011 h 63.3819 2.8887 c -0.088,-0.061 -0.1686,-0.1258 -0.257,-0.1874 a 80.318265,80.318265 0 0 0 77.6847,-80.1308 v 0 a 80.318265,80.318265 0 0 0 -80.3178,-80.3174 80.318265,80.318265 0 0 0 -5.3553,0.3831 v -40.4044 -19.1535 c 0,-10.5019 -5.7781,-16.5563 -14.4442,-16.919 z m 20.234,109.0449 c 4.3338,-5e-4 8.657,0.4134 11.7032,1.2439 15.3258,4.1578 28.2675,16.4883 33.0068,31.4459 2.2744,7.1781 2.2744,21.3489 0,28.5269 -4.3133,13.614 -15.367,25.0505 -28.9917,29.9962 -9.7345,3.5332 -21.0688,3.7035 -30.6741,0.4608 l -3.8242,-1.291 -7.0447,1.9576 c -9.7493,2.7097 -9.7046,2.7019 -11.5136,1.9951 v 0 c -2.8551,-1.1158 -3.0853,-3.3907 -1.0931,-10.8081 l 1.8181,-6.7682 -2.5983,-3.8488 c -5.4528,-8.079 -8.7809,-20.0839 -7.9456,-28.6584 2.0628,-21.1721 15.6805,-37.7196 35.3877,-42.9997 3.0917,-0.8284 7.4358,-1.2433 11.7695,-1.2439 z" /><path
         d="m -7826.4442,3441.5274 c -7.393,5e-4 -13.3858,5.9947 -13.3855,13.3869 5e-4,7.3925 5.993,13.3848 13.3855,13.3856 7.3931,5e-4 13.3864,-5.9926 13.3869,-13.3856 3e-4,-7.3941 -5.9933,-13.3872 -13.3869,-13.3869 z m -39.505,10.7043 c -7.3931,2e-4 -13.3859,5.9944 -13.3856,13.3869 5e-4,7.3922 5.9933,13.3845 13.3856,13.3856 7.393,0 13.3863,-5.9926 13.3869,-13.3856 5e-4,-7.3941 -5.9934,-13.3872 -13.3869,-13.3869 z"
         style="fill:#f39e10;fill-opacity:1;stroke:none;stroke-width:4.28543;stroke-linecap:round;stroke-linejoin:round;stroke-dasharray:none;stroke-opacity:1;paint-order:markers fill stroke"
         id="path1-6-8-6-3-47-1-2-8-5-4-3-0-1-2-3" /></g></g></svg>
